# Tiled2Unity generated file. Do not modify by hand.
# Wavefront file for 'ThirdLevel_mesh_0005.obj'

# Vertices (Count = 20)
v -69 -63 0
v -70 -63 0
v -70 -62 0
v -69 -62 0
v -69 -64 0
v -70 -64 0
v -70 -63 0
v -69 -63 0
v -69 -65 0
v -70 -65 0
v -70 -64 0
v -69 -64 0
v -68 -66 0
v -69 -66 0
v -69 -65 0
v -68 -65 0
v -68 -67 0
v -69 -67 0
v -69 -66 0
v -68 -66 0

# Texture cooridinates (Count = 8)
vt 0.3751221 0.6876221
vt 0.4373779 0.6876221
vt 0.4373779 0.7498779
vt 0.3751221 0.7498779
vt 0.3751221 0.6251221
vt 0.4373779 0.6251221
vt 0.4373779 0.6873779
vt 0.3751221 0.6873779

# Normal
vn 0 0 -1

# Mesh description
g ThirdLevel_mesh_0005

# Faces
f 1/1/1 2/2/1 3/3/1 4/4/1
f 5/5/1 6/6/1 7/7/1 8/8/1
f 9/5/1 10/6/1 11/7/1 12/8/1
f 13/1/1 14/2/1 15/3/1 16/4/1
f 17/5/1 18/6/1 19/7/1 20/8/1

