# Tiled2Unity generated file. Do not modify by hand.
# Wavefront file for 'ThirdLevel_mesh_0004.obj'

# Vertices (Count = 600)
v -81 -33 0
v -82 -33 0
v -82 -32 0
v -81 -32 0
v -65 -34 0
v -66 -34 0
v -66 -33 0
v -65 -33 0
v -75 -36 0
v -76 -36 0
v -76 -35 0
v -75 -35 0
v -76 -36 0
v -77 -36 0
v -77 -35 0
v -76 -35 0
v -64 -38 0
v -65 -38 0
v -65 -37 0
v -64 -37 0
v -82 -38 0
v -83 -38 0
v -83 -37 0
v -82 -37 0
v -80 -39 0
v -81 -39 0
v -81 -38 0
v -80 -38 0
v -81 -39 0
v -82 -39 0
v -82 -38 0
v -81 -38 0
v -82 -39 0
v -83 -39 0
v -83 -38 0
v -82 -38 0
v -83 -39 0
v -84 -39 0
v -84 -38 0
v -83 -38 0
v -64 -40 0
v -65 -40 0
v -65 -39 0
v -64 -39 0
v -65 -40 0
v -66 -40 0
v -66 -39 0
v -65 -39 0
v -71 -40 0
v -72 -40 0
v -72 -39 0
v -71 -39 0
v -65 -41 0
v -66 -41 0
v -66 -40 0
v -65 -40 0
v -65 -42 0
v -66 -42 0
v -66 -41 0
v -65 -41 0
v -66 -42 0
v -67 -42 0
v -67 -41 0
v -66 -41 0
v -66 -43 0
v -67 -43 0
v -67 -42 0
v -66 -42 0
v -67 -43 0
v -68 -43 0
v -68 -42 0
v -67 -42 0
v -77 -43 0
v -78 -43 0
v -78 -42 0
v -77 -42 0
v -67 -44 0
v -68 -44 0
v -68 -43 0
v -67 -43 0
v -77 -44 0
v -78 -44 0
v -78 -43 0
v -77 -43 0
v -78 -44 0
v -79 -44 0
v -79 -43 0
v -78 -43 0
v -83 -44 0
v -84 -44 0
v -84 -43 0
v -83 -43 0
v -84 -44 0
v -85 -44 0
v -85 -43 0
v -84 -43 0
v -81 -45 0
v -82 -45 0
v -82 -44 0
v -81 -44 0
v -71 -51 0
v -72 -51 0
v -72 -50 0
v -71 -50 0
v -74 -51 0
v -75 -51 0
v -75 -50 0
v -74 -50 0
v -70 -54 0
v -71 -54 0
v -71 -53 0
v -70 -53 0
v -71 -54 0
v -72 -54 0
v -72 -53 0
v -71 -53 0
v -71 -56 0
v -72 -56 0
v -72 -55 0
v -71 -55 0
v -71 -57 0
v -72 -57 0
v -72 -56 0
v -71 -56 0
v -75 -58 0
v -76 -58 0
v -76 -57 0
v -75 -57 0
v -76 -58 0
v -77 -58 0
v -77 -57 0
v -76 -57 0
v -76 -59 0
v -77 -59 0
v -77 -58 0
v -76 -58 0
v -76 -60 0
v -77 -60 0
v -77 -59 0
v -76 -59 0
v -76 -61 0
v -77 -61 0
v -77 -60 0
v -76 -60 0
v -62 -62 0
v -63 -62 0
v -63 -61 0
v -62 -61 0
v -76 -62 0
v -77 -62 0
v -77 -61 0
v -76 -61 0
v -36 -63 0
v -37 -63 0
v -37 -62 0
v -36 -62 0
v -37 -63 0
v -38 -63 0
v -38 -62 0
v -37 -62 0
v -38 -63 0
v -39 -63 0
v -39 -62 0
v -38 -62 0
v -46 -63 0
v -47 -63 0
v -47 -62 0
v -46 -62 0
v -47 -63 0
v -48 -63 0
v -48 -62 0
v -47 -62 0
v -48 -63 0
v -49 -63 0
v -49 -62 0
v -48 -62 0
v -49 -63 0
v -50 -63 0
v -50 -62 0
v -49 -62 0
v -60 -63 0
v -61 -63 0
v -61 -62 0
v -60 -62 0
v -62 -63 0
v -63 -63 0
v -63 -62 0
v -62 -62 0
v -68 -63 0
v -69 -63 0
v -69 -62 0
v -68 -62 0
v -48 -64 0
v -49 -64 0
v -49 -63 0
v -48 -63 0
v -56 -64 0
v -57 -64 0
v -57 -63 0
v -56 -63 0
v -60 -64 0
v -61 -64 0
v -61 -63 0
v -60 -63 0
v -61 -64 0
v -62 -64 0
v -62 -63 0
v -61 -63 0
v -41 -65 0
v -42 -65 0
v -42 -64 0
v -41 -64 0
v -26 -66 0
v -27 -66 0
v -27 -65 0
v -26 -65 0
v -41 -66 0
v -42 -66 0
v -42 -65 0
v -41 -65 0
v -43 -66 0
v -44 -66 0
v -44 -65 0
v -43 -65 0
v -44 -66 0
v -45 -66 0
v -45 -65 0
v -44 -65 0
v -45 -66 0
v -46 -66 0
v -46 -65 0
v -45 -65 0
v -46 -66 0
v -47 -66 0
v -47 -65 0
v -46 -65 0
v -53 -66 0
v -54 -66 0
v -54 -65 0
v -53 -65 0
v -54 -66 0
v -55 -66 0
v -55 -65 0
v -54 -65 0
v -55 -66 0
v -56 -66 0
v -56 -65 0
v -55 -65 0
v -63 -66 0
v -64 -66 0
v -64 -65 0
v -63 -65 0
v -41 -67 0
v -42 -67 0
v -42 -66 0
v -41 -66 0
v -15 -68 0
v -16 -68 0
v -16 -67 0
v -15 -67 0
v -15 -69 0
v -16 -69 0
v -16 -68 0
v -15 -68 0
v -15 -70 0
v -16 -70 0
v -16 -69 0
v -15 -69 0
v -15 -71 0
v -16 -71 0
v -16 -70 0
v -15 -70 0
v -15 -72 0
v -16 -72 0
v -16 -71 0
v -15 -71 0
v -19 -72 0
v -20 -72 0
v -20 -71 0
v -19 -71 0
v -19 -73 0
v -20 -73 0
v -20 -72 0
v -19 -72 0
v -19 -74 0
v -20 -74 0
v -20 -73 0
v -19 -73 0
v -25 -79 0
v -26 -79 0
v -26 -78 0
v -25 -78 0
v -26 -79 0
v -27 -79 0
v -27 -78 0
v -26 -78 0
v -27 -79 0
v -28 -79 0
v -28 -78 0
v -27 -78 0
v -28 -79 0
v -29 -79 0
v -29 -78 0
v -28 -78 0
v -15 -81 0
v -16 -81 0
v -16 -80 0
v -15 -80 0
v -35 -81 0
v -36 -81 0
v -36 -80 0
v -35 -80 0
v -36 -81 0
v -37 -81 0
v -37 -80 0
v -36 -80 0
v -37 -81 0
v -38 -81 0
v -38 -80 0
v -37 -80 0
v -15 -82 0
v -16 -82 0
v -16 -81 0
v -15 -81 0
v -17 -82 0
v -18 -82 0
v -18 -81 0
v -17 -81 0
v -29 -82 0
v -30 -82 0
v -30 -81 0
v -29 -81 0
v -33 -82 0
v -34 -82 0
v -34 -81 0
v -33 -81 0
v -51 -91 0
v -52 -91 0
v -52 -90 0
v -51 -90 0
v -53 -91 0
v -54 -91 0
v -54 -90 0
v -53 -90 0
v -54 -91 0
v -55 -91 0
v -55 -90 0
v -54 -90 0
v -52 -92 0
v -53 -92 0
v -53 -91 0
v -52 -91 0
v -53 -92 0
v -54 -92 0
v -54 -91 0
v -53 -91 0
v -49 -94 0
v -50 -94 0
v -50 -93 0
v -49 -93 0
v -45 -95 0
v -46 -95 0
v -46 -94 0
v -45 -94 0
v -47 -95 0
v -48 -95 0
v -48 -94 0
v -47 -94 0
v -48 -95 0
v -49 -95 0
v -49 -94 0
v -48 -94 0
v -49 -95 0
v -50 -95 0
v -50 -94 0
v -49 -94 0
v -31 -96 0
v -32 -96 0
v -32 -95 0
v -31 -95 0
v -45 -96 0
v -46 -96 0
v -46 -95 0
v -45 -95 0
v -31 -97 0
v -32 -97 0
v -32 -96 0
v -31 -96 0
v -44 -97 0
v -45 -97 0
v -45 -96 0
v -44 -96 0
v -69 -98 0
v -70 -98 0
v -70 -97 0
v -69 -97 0
v -70 -98 0
v -71 -98 0
v -71 -97 0
v -70 -97 0
v -71 -98 0
v -72 -98 0
v -72 -97 0
v -71 -97 0
v -72 -98 0
v -73 -98 0
v -73 -97 0
v -72 -97 0
v -73 -98 0
v -74 -98 0
v -74 -97 0
v -73 -97 0
v -74 -98 0
v -75 -98 0
v -75 -97 0
v -74 -97 0
v -43 -99 0
v -44 -99 0
v -44 -98 0
v -43 -98 0
v -66 -99 0
v -67 -99 0
v -67 -98 0
v -66 -98 0
v -67 -99 0
v -68 -99 0
v -68 -98 0
v -67 -98 0
v -68 -99 0
v -69 -99 0
v -69 -98 0
v -68 -98 0
v -69 -99 0
v -70 -99 0
v -70 -98 0
v -69 -98 0
v -74 -99 0
v -75 -99 0
v -75 -98 0
v -74 -98 0
v -75 -99 0
v -76 -99 0
v -76 -98 0
v -75 -98 0
v -76 -99 0
v -77 -99 0
v -77 -98 0
v -76 -98 0
v -32 -100 0
v -33 -100 0
v -33 -99 0
v -32 -99 0
v -43 -100 0
v -44 -100 0
v -44 -99 0
v -43 -99 0
v -65 -100 0
v -66 -100 0
v -66 -99 0
v -65 -99 0
v -66 -100 0
v -67 -100 0
v -67 -99 0
v -66 -99 0
v -76 -100 0
v -77 -100 0
v -77 -99 0
v -76 -99 0
v -77 -100 0
v -78 -100 0
v -78 -99 0
v -77 -99 0
v -32 -101 0
v -33 -101 0
v -33 -100 0
v -32 -100 0
v -33 -101 0
v -34 -101 0
v -34 -100 0
v -33 -100 0
v -43 -101 0
v -44 -101 0
v -44 -100 0
v -43 -100 0
v -44 -101 0
v -45 -101 0
v -45 -100 0
v -44 -100 0
v -77 -101 0
v -78 -101 0
v -78 -100 0
v -77 -100 0
v -33 -102 0
v -34 -102 0
v -34 -101 0
v -33 -101 0
v -44 -102 0
v -45 -102 0
v -45 -101 0
v -44 -101 0
v -33 -103 0
v -34 -103 0
v -34 -102 0
v -33 -102 0
v -64 -110 0
v -65 -110 0
v -65 -109 0
v -64 -109 0
v -65 -110 0
v -66 -110 0
v -66 -109 0
v -65 -109 0
v -69 -110 0
v -70 -110 0
v -70 -109 0
v -69 -109 0
v -70 -110 0
v -71 -110 0
v -71 -109 0
v -70 -109 0
v -71 -110 0
v -72 -110 0
v -72 -109 0
v -71 -109 0
v -63 -111 0
v -64 -111 0
v -64 -110 0
v -63 -110 0
v -64 -111 0
v -65 -111 0
v -65 -110 0
v -64 -110 0
v -85 -113 0
v -86 -113 0
v -86 -112 0
v -85 -112 0
v -80 -114 0
v -81 -114 0
v -81 -113 0
v -80 -113 0
v -66 -115 0
v -67 -115 0
v -67 -114 0
v -66 -114 0
v -87 -117 0
v -88 -117 0
v -88 -116 0
v -87 -116 0
v -82 -118 0
v -83 -118 0
v -83 -117 0
v -82 -117 0
v -79 -119 0
v -80 -119 0
v -80 -118 0
v -79 -118 0
v -85 -121 0
v -86 -121 0
v -86 -120 0
v -85 -120 0
v -86 -121 0
v -87 -121 0
v -87 -120 0
v -86 -120 0
v -85 -122 0
v -86 -122 0
v -86 -121 0
v -85 -121 0
v -82 -124 0
v -83 -124 0
v -83 -123 0
v -82 -123 0
v -86 -124 0
v -87 -124 0
v -87 -123 0
v -86 -123 0
v -69 -125 0
v -70 -125 0
v -70 -124 0
v -69 -124 0
v -79 -128 0
v -80 -128 0
v -80 -127 0
v -79 -127 0
v -78 -129 0
v -79 -129 0
v -79 -128 0
v -78 -128 0
v -79 -129 0
v -80 -129 0
v -80 -128 0
v -79 -128 0
v -75 -131 0
v -76 -131 0
v -76 -130 0
v -75 -130 0
v -77 -133 0
v -78 -133 0
v -78 -132 0
v -77 -132 0

# Texture cooridinates (Count = 60)
vt 0.7501221 0.5626221
vt 0.8123779 0.5626221
vt 0.8123779 0.6248779
vt 0.7501221 0.6248779
vt 0.5626221 0.6876221
vt 0.6248779 0.6876221
vt 0.6248779 0.7498779
vt 0.5626221 0.7498779
vt 0.6876221 0.6876221
vt 0.7498779 0.6876221
vt 0.7498779 0.7498779
vt 0.6876221 0.7498779
vt 0.5626221 0.6251221
vt 0.6248779 0.6251221
vt 0.6248779 0.6873779
vt 0.5626221 0.6873779
vt 0.6251221 0.6876221
vt 0.6873779 0.6876221
vt 0.6873779 0.7498779
vt 0.6251221 0.7498779
vt 0.6876221 0.6251221
vt 0.7498779 0.6251221
vt 0.7498779 0.6873779
vt 0.6876221 0.6873779
vt 0.7501221 0.6876221
vt 0.8123779 0.6876221
vt 0.8123779 0.7498779
vt 0.7501221 0.7498779
vt 0.7501221 0.6251221
vt 0.8123779 0.6251221
vt 0.8123779 0.6873779
vt 0.7501221 0.6873779
vt 0.8126221 0.6876221
vt 0.8748779 0.6876221
vt 0.8748779 0.7498779
vt 0.8126221 0.7498779
vt 0.8126221 0.5626221
vt 0.8748779 0.5626221
vt 0.8748779 0.6248779
vt 0.8126221 0.6248779
vt 0.6251221 0.5626221
vt 0.6873779 0.5626221
vt 0.6873779 0.6248779
vt 0.6251221 0.6248779
vt 0.8126221 0.6251221
vt 0.8748779 0.6251221
vt 0.8748779 0.6873779
vt 0.8126221 0.6873779
vt 0.5626221 0.5626221
vt 0.6248779 0.5626221
vt 0.6248779 0.6248779
vt 0.5626221 0.6248779
vt 0.6251221 0.6251221
vt 0.6873779 0.6251221
vt 0.6873779 0.6873779
vt 0.6251221 0.6873779
vt 0.6876221 0.5626221
vt 0.7498779 0.5626221
vt 0.7498779 0.6248779
vt 0.6876221 0.6248779

# Normal
vn 0 0 -1

# Mesh description
g ThirdLevel_mesh_0004

# Faces
f 1/1/1 2/2/1 3/3/1 4/4/1
f 5/5/1 6/6/1 7/7/1 8/8/1
f 9/9/1 10/10/1 11/11/1 12/12/1
f 13/13/1 14/14/1 15/15/1 16/16/1
f 17/17/1 18/18/1 19/19/1 20/20/1
f 21/21/1 22/22/1 23/23/1 24/24/1
f 25/9/1 26/10/1 27/11/1 28/12/1
f 29/25/1 30/26/1 31/27/1 32/28/1
f 33/17/1 34/18/1 35/19/1 36/20/1
f 37/29/1 38/30/1 39/31/1 40/32/1
f 41/33/1 42/34/1 43/35/1 44/36/1
f 45/9/1 46/10/1 47/11/1 48/12/1
f 49/37/1 50/38/1 51/39/1 52/40/1
f 53/41/1 54/42/1 55/43/1 56/44/1
f 57/29/1 58/30/1 59/31/1 60/32/1
f 61/17/1 62/18/1 63/19/1 64/20/1
f 65/37/1 66/38/1 67/39/1 68/40/1
f 69/1/1 70/2/1 71/3/1 72/4/1
f 73/29/1 74/30/1 75/31/1 76/32/1
f 77/29/1 78/30/1 79/31/1 80/32/1
f 81/45/1 82/46/1 83/47/1 84/48/1
f 85/49/1 86/50/1 87/51/1 88/52/1
f 89/21/1 90/22/1 91/23/1 92/24/1
f 93/45/1 94/46/1 95/47/1 96/48/1
f 97/49/1 98/50/1 99/51/1 100/52/1
f 101/33/1 102/34/1 103/35/1 104/36/1
f 105/53/1 106/54/1 107/55/1 108/56/1
f 109/33/1 110/34/1 111/35/1 112/36/1
f 113/49/1 114/50/1 115/51/1 116/52/1
f 117/21/1 118/22/1 119/23/1 120/24/1
f 121/53/1 122/54/1 123/55/1 124/56/1
f 125/33/1 126/34/1 127/35/1 128/36/1
f 129/9/1 130/10/1 131/11/1 132/12/1
f 133/37/1 134/38/1 135/39/1 136/40/1
f 137/41/1 138/42/1 139/43/1 140/44/1
f 141/17/1 142/18/1 143/19/1 144/20/1
f 145/17/1 146/18/1 147/19/1 148/20/1
f 149/33/1 150/34/1 151/35/1 152/36/1
f 153/9/1 154/10/1 155/11/1 156/12/1
f 157/57/1 158/58/1 159/59/1 160/60/1
f 161/53/1 162/54/1 163/55/1 164/56/1
f 165/1/1 166/2/1 167/3/1 168/4/1
f 169/57/1 170/58/1 171/59/1 172/60/1
f 173/17/1 174/18/1 175/19/1 176/20/1
f 177/57/1 178/58/1 179/59/1 180/60/1
f 181/53/1 182/54/1 183/55/1 184/56/1
f 185/25/1 186/26/1 187/27/1 188/28/1
f 189/41/1 190/42/1 191/43/1 192/44/1
f 193/29/1 194/30/1 195/31/1 196/32/1
f 197/53/1 198/54/1 199/55/1 200/56/1
f 201/17/1 202/18/1 203/19/1 204/20/1
f 205/1/1 206/2/1 207/3/1 208/4/1
f 209/13/1 210/14/1 211/15/1 212/16/1
f 213/41/1 214/42/1 215/43/1 216/44/1
f 217/21/1 218/22/1 219/23/1 220/24/1
f 221/57/1 222/58/1 223/59/1 224/60/1
f 225/25/1 226/26/1 227/27/1 228/28/1
f 229/17/1 230/18/1 231/19/1 232/20/1
f 233/1/1 234/2/1 235/3/1 236/4/1
f 237/53/1 238/54/1 239/55/1 240/56/1
f 241/21/1 242/22/1 243/23/1 244/24/1
f 245/29/1 246/30/1 247/31/1 248/32/1
f 249/1/1 250/2/1 251/3/1 252/4/1
f 253/21/1 254/22/1 255/23/1 256/24/1
f 257/1/1 258/2/1 259/3/1 260/4/1
f 261/17/1 262/18/1 263/19/1 264/20/1
f 265/29/1 266/30/1 267/31/1 268/32/1
f 269/33/1 270/34/1 271/35/1 272/36/1
f 273/29/1 274/30/1 275/31/1 276/32/1
f 277/37/1 278/38/1 279/39/1 280/40/1
f 281/57/1 282/58/1 283/59/1 284/60/1
f 285/41/1 286/42/1 287/43/1 288/44/1
f 289/17/1 290/18/1 291/19/1 292/20/1
f 293/21/1 294/22/1 295/23/1 296/24/1
f 297/13/1 298/14/1 299/15/1 300/16/1
f 301/9/1 302/10/1 303/11/1 304/12/1
f 305/25/1 306/26/1 307/27/1 308/28/1
f 309/49/1 310/50/1 311/51/1 312/52/1
f 313/33/1 314/34/1 315/35/1 316/36/1
f 317/29/1 318/30/1 319/31/1 320/32/1
f 321/9/1 322/10/1 323/11/1 324/12/1
f 325/5/1 326/6/1 327/7/1 328/8/1
f 329/37/1 330/38/1 331/39/1 332/40/1
f 333/53/1 334/54/1 335/55/1 336/56/1
f 337/37/1 338/38/1 339/39/1 340/40/1
f 341/5/1 342/6/1 343/7/1 344/8/1
f 345/21/1 346/22/1 347/23/1 348/24/1
f 349/49/1 350/50/1 351/51/1 352/52/1
f 353/57/1 354/58/1 355/59/1 356/60/1
f 357/53/1 358/54/1 359/55/1 360/56/1
f 361/33/1 362/34/1 363/35/1 364/36/1
f 365/17/1 366/18/1 367/19/1 368/20/1
f 369/9/1 370/10/1 371/11/1 372/12/1
f 373/1/1 374/2/1 375/3/1 376/4/1
f 377/21/1 378/22/1 379/23/1 380/24/1
f 381/5/1 382/6/1 383/7/1 384/8/1
f 385/57/1 386/58/1 387/59/1 388/60/1
f 389/33/1 390/34/1 391/35/1 392/36/1
f 393/45/1 394/46/1 395/47/1 396/48/1
f 397/17/1 398/18/1 399/19/1 400/20/1
f 401/5/1 402/6/1 403/7/1 404/8/1
f 405/57/1 406/58/1 407/59/1 408/60/1
f 409/33/1 410/34/1 411/35/1 412/36/1
f 413/53/1 414/54/1 415/55/1 416/56/1
f 417/13/1 418/14/1 419/15/1 420/16/1
f 421/25/1 422/26/1 423/27/1 424/28/1
f 425/17/1 426/18/1 427/19/1 428/20/1
f 429/1/1 430/2/1 431/3/1 432/4/1
f 433/29/1 434/30/1 435/31/1 436/32/1
f 437/29/1 438/30/1 439/31/1 440/32/1
f 441/49/1 442/50/1 443/51/1 444/52/1
f 445/49/1 446/50/1 447/51/1 448/52/1
f 449/1/1 450/2/1 451/3/1 452/4/1
f 453/25/1 454/26/1 455/27/1 456/28/1
f 457/37/1 458/38/1 459/39/1 460/40/1
f 461/57/1 462/58/1 463/59/1 464/60/1
f 465/49/1 466/50/1 467/51/1 468/52/1
f 469/21/1 470/22/1 471/23/1 472/24/1
f 473/21/1 474/22/1 475/23/1 476/24/1
f 477/29/1 478/30/1 479/31/1 480/32/1
f 481/37/1 482/38/1 483/39/1 484/40/1
f 485/49/1 486/50/1 487/51/1 488/52/1
f 489/41/1 490/42/1 491/43/1 492/44/1
f 493/41/1 494/42/1 495/43/1 496/44/1
f 497/21/1 498/22/1 499/23/1 500/24/1
f 501/17/1 502/18/1 503/19/1 504/20/1
f 505/29/1 506/30/1 507/31/1 508/32/1
f 509/1/1 510/2/1 511/3/1 512/4/1
f 513/17/1 514/18/1 515/19/1 516/20/1
f 517/57/1 518/58/1 519/59/1 520/60/1
f 521/29/1 522/30/1 523/31/1 524/32/1
f 525/41/1 526/42/1 527/43/1 528/44/1
f 529/9/1 530/10/1 531/11/1 532/12/1
f 533/53/1 534/54/1 535/55/1 536/56/1
f 537/13/1 538/14/1 539/15/1 540/16/1
f 541/53/1 542/54/1 543/55/1 544/56/1
f 545/17/1 546/18/1 547/19/1 548/20/1
f 549/9/1 550/10/1 551/11/1 552/12/1
f 553/17/1 554/18/1 555/19/1 556/20/1
f 557/29/1 558/30/1 559/31/1 560/32/1
f 561/13/1 562/14/1 563/15/1 564/16/1
f 565/57/1 566/58/1 567/59/1 568/60/1
f 569/9/1 570/10/1 571/11/1 572/12/1
f 573/53/1 574/54/1 575/55/1 576/56/1
f 577/21/1 578/22/1 579/23/1 580/24/1
f 581/49/1 582/50/1 583/51/1 584/52/1
f 585/49/1 586/50/1 587/51/1 588/52/1
f 589/57/1 590/58/1 591/59/1 592/60/1
f 593/9/1 594/10/1 595/11/1 596/12/1
f 597/45/1 598/46/1 599/47/1 600/48/1

