# Tiled2Unity generated file. Do not modify by hand.
# Wavefront file for 'ThirdLevel_mesh_0007.obj'

# Vertices (Count = 28)
v -68 -62 0
v -69 -62 0
v -69 -61 0
v -68 -61 0
v -68 -63 0
v -69 -63 0
v -69 -62 0
v -68 -62 0
v -69 -63 0
v -70 -63 0
v -70 -62 0
v -69 -62 0
v -69 -64 0
v -70 -64 0
v -70 -63 0
v -69 -63 0
v -69 -65 0
v -70 -65 0
v -70 -64 0
v -69 -64 0
v -70 -65 0
v -71 -65 0
v -71 -64 0
v -70 -64 0
v -70 -66 0
v -71 -66 0
v -71 -65 0
v -70 -65 0

# Texture cooridinates (Count = 8)
vt 0.3751221 0.6876221
vt 0.4373779 0.6876221
vt 0.4373779 0.7498779
vt 0.3751221 0.7498779
vt 0.3751221 0.6251221
vt 0.4373779 0.6251221
vt 0.4373779 0.6873779
vt 0.3751221 0.6873779

# Normal
vn 0 0 -1

# Mesh description
g ThirdLevel_mesh_0007

# Faces
f 1/1/1 2/2/1 3/3/1 4/4/1
f 5/5/1 6/6/1 7/7/1 8/8/1
f 9/1/1 10/2/1 11/3/1 12/4/1
f 13/1/1 14/2/1 15/3/1 16/4/1
f 17/5/1 18/6/1 19/7/1 20/8/1
f 21/1/1 22/2/1 23/3/1 24/4/1
f 25/5/1 26/6/1 27/7/1 28/8/1

