# Tiled2Unity generated file. Do not modify by hand.
# Wavefront file for 'SecondLevel_mesh_0005.obj'

# Vertices (Count = 180)
v -8 -6 0
v -9 -6 0
v -9 -5 0
v -8 -5 0
v -9 -6 0
v -10 -6 0
v -10 -5 0
v -9 -5 0
v -8 -7 0
v -9 -7 0
v -9 -6 0
v -8 -6 0
v -9 -7 0
v -10 -7 0
v -10 -6 0
v -9 -6 0
v -8 -8 0
v -9 -8 0
v -9 -7 0
v -8 -7 0
v -9 -8 0
v -10 -8 0
v -10 -7 0
v -9 -7 0
v -47 -9 0
v -48 -9 0
v -48 -8 0
v -47 -8 0
v -16 -10 0
v -17 -10 0
v -17 -9 0
v -16 -9 0
v -17 -10 0
v -18 -10 0
v -18 -9 0
v -17 -9 0
v -47 -10 0
v -48 -10 0
v -48 -9 0
v -47 -9 0
v -16 -11 0
v -17 -11 0
v -17 -10 0
v -16 -10 0
v -17 -11 0
v -18 -11 0
v -18 -10 0
v -17 -10 0
v -47 -11 0
v -48 -11 0
v -48 -10 0
v -47 -10 0
v -14 -18 0
v -15 -18 0
v -15 -17 0
v -14 -17 0
v -15 -18 0
v -16 -18 0
v -16 -17 0
v -15 -17 0
v -14 -19 0
v -15 -19 0
v -15 -18 0
v -14 -18 0
v -15 -19 0
v -16 -19 0
v -16 -18 0
v -15 -18 0
v -4 -40 0
v -5 -40 0
v -5 -39 0
v -4 -39 0
v -5 -40 0
v -6 -40 0
v -6 -39 0
v -5 -39 0
v -4 -41 0
v -5 -41 0
v -5 -40 0
v -4 -40 0
v -5 -41 0
v -6 -41 0
v -6 -40 0
v -5 -40 0
v -4 -42 0
v -5 -42 0
v -5 -41 0
v -4 -41 0
v -5 -42 0
v -6 -42 0
v -6 -41 0
v -5 -41 0
v -11 -42 0
v -12 -42 0
v -12 -41 0
v -11 -41 0
v -12 -42 0
v -13 -42 0
v -13 -41 0
v -12 -41 0
v -11 -43 0
v -12 -43 0
v -12 -42 0
v -11 -42 0
v -12 -43 0
v -13 -43 0
v -13 -42 0
v -12 -42 0
v -15 -45 0
v -16 -45 0
v -16 -44 0
v -15 -44 0
v -16 -45 0
v -17 -45 0
v -17 -44 0
v -16 -44 0
v -15 -46 0
v -16 -46 0
v -16 -45 0
v -15 -45 0
v -16 -46 0
v -17 -46 0
v -17 -45 0
v -16 -45 0
v -40 -46 0
v -41 -46 0
v -41 -45 0
v -40 -45 0
v -41 -46 0
v -42 -46 0
v -42 -45 0
v -41 -45 0
v -42 -46 0
v -43 -46 0
v -43 -45 0
v -42 -45 0
v -43 -46 0
v -44 -46 0
v -44 -45 0
v -43 -45 0
v -15 -47 0
v -16 -47 0
v -16 -46 0
v -15 -46 0
v -16 -47 0
v -17 -47 0
v -17 -46 0
v -16 -46 0
v -40 -47 0
v -41 -47 0
v -41 -46 0
v -40 -46 0
v -41 -47 0
v -42 -47 0
v -42 -46 0
v -41 -46 0
v -42 -47 0
v -43 -47 0
v -43 -46 0
v -42 -46 0
v -43 -47 0
v -44 -47 0
v -44 -46 0
v -43 -46 0
v -40 -48 0
v -41 -48 0
v -41 -47 0
v -40 -47 0
v -41 -48 0
v -42 -48 0
v -42 -47 0
v -41 -47 0
v -42 -48 0
v -43 -48 0
v -43 -47 0
v -42 -47 0
v -43 -48 0
v -44 -48 0
v -44 -47 0
v -43 -47 0

# Texture cooridinates (Count = 96)
vt 0.5001221 0.2501221
vt 0.5623779 0.2501221
vt 0.5623779 0.3123779
vt 0.5001221 0.3123779
vt 0.5626221 0.2501221
vt 0.6248779 0.2501221
vt 0.6248779 0.3123779
vt 0.5626221 0.3123779
vt 0.5001221 0.1876221
vt 0.5623779 0.1876221
vt 0.5623779 0.2498779
vt 0.5001221 0.2498779
vt 0.5626221 0.1876221
vt 0.6248779 0.1876221
vt 0.6248779 0.2498779
vt 0.5626221 0.2498779
vt 0.5001221 0.1251221
vt 0.5623779 0.1251221
vt 0.5623779 0.1873779
vt 0.5001221 0.1873779
vt 0.5626221 0.1251221
vt 0.6248779 0.1251221
vt 0.6248779 0.1873779
vt 0.5626221 0.1873779
vt 0.3751221 0.6876221
vt 0.4373779 0.6876221
vt 0.4373779 0.7498779
vt 0.3751221 0.7498779
vt 0.5001221 0.06262207
vt 0.5623779 0.06262207
vt 0.5623779 0.1248779
vt 0.5001221 0.1248779
vt 0.5626221 0.06262207
vt 0.6248779 0.06262207
vt 0.6248779 0.1248779
vt 0.5626221 0.1248779
vt 0.5001221 0.0001220703
vt 0.5623779 0.0001220703
vt 0.5623779 0.06237793
vt 0.5001221 0.06237793
vt 0.5626221 0.0001220703
vt 0.6248779 0.0001220703
vt 0.6248779 0.06237793
vt 0.5626221 0.06237793
vt 0.3751221 0.6251221
vt 0.4373779 0.6251221
vt 0.4373779 0.6873779
vt 0.3751221 0.6873779
vt 0.5626221 0.7501221
vt 0.6248779 0.7501221
vt 0.6248779 0.8123779
vt 0.5626221 0.8123779
vt 0.6251221 0.7501221
vt 0.6873779 0.7501221
vt 0.6873779 0.8123779
vt 0.6251221 0.8123779
vt 0.6876221 0.7501221
vt 0.7498779 0.7501221
vt 0.7498779 0.8123779
vt 0.6876221 0.8123779
vt 0.7501221 0.7501221
vt 0.8123779 0.7501221
vt 0.8123779 0.8123779
vt 0.7501221 0.8123779
vt 0.5626221 0.6876221
vt 0.6248779 0.6876221
vt 0.6248779 0.7498779
vt 0.5626221 0.7498779
vt 0.6251221 0.6876221
vt 0.6873779 0.6876221
vt 0.6873779 0.7498779
vt 0.6251221 0.7498779
vt 0.6876221 0.6876221
vt 0.7498779 0.6876221
vt 0.7498779 0.7498779
vt 0.6876221 0.7498779
vt 0.7501221 0.6876221
vt 0.8123779 0.6876221
vt 0.8123779 0.7498779
vt 0.7501221 0.7498779
vt 0.5626221 0.6251221
vt 0.6248779 0.6251221
vt 0.6248779 0.6873779
vt 0.5626221 0.6873779
vt 0.6251221 0.6251221
vt 0.6873779 0.6251221
vt 0.6873779 0.6873779
vt 0.6251221 0.6873779
vt 0.6876221 0.6251221
vt 0.7498779 0.6251221
vt 0.7498779 0.6873779
vt 0.6876221 0.6873779
vt 0.7501221 0.6251221
vt 0.8123779 0.6251221
vt 0.8123779 0.6873779
vt 0.7501221 0.6873779

# Normal
vn 0 0 -1

# Mesh description
g SecondLevel_mesh_0005

# Faces
f 1/1/1 2/2/1 3/3/1 4/4/1
f 5/5/1 6/6/1 7/7/1 8/8/1
f 9/9/1 10/10/1 11/11/1 12/12/1
f 13/13/1 14/14/1 15/15/1 16/16/1
f 17/17/1 18/18/1 19/19/1 20/20/1
f 21/21/1 22/22/1 23/23/1 24/24/1
f 25/25/1 26/26/1 27/27/1 28/28/1
f 29/29/1 30/30/1 31/31/1 32/32/1
f 33/33/1 34/34/1 35/35/1 36/36/1
f 37/25/1 38/26/1 39/27/1 40/28/1
f 41/37/1 42/38/1 43/39/1 44/40/1
f 45/41/1 46/42/1 47/43/1 48/44/1
f 49/45/1 50/46/1 51/47/1 52/48/1
f 53/25/1 54/26/1 55/27/1 56/28/1
f 57/25/1 58/26/1 59/27/1 60/28/1
f 61/45/1 62/46/1 63/47/1 64/48/1
f 65/45/1 66/46/1 67/47/1 68/48/1
f 69/1/1 70/2/1 71/3/1 72/4/1
f 73/5/1 74/6/1 75/7/1 76/8/1
f 77/9/1 78/10/1 79/11/1 80/12/1
f 81/13/1 82/14/1 83/15/1 84/16/1
f 85/17/1 86/18/1 87/19/1 88/20/1
f 89/21/1 90/22/1 91/23/1 92/24/1
f 93/29/1 94/30/1 95/31/1 96/32/1
f 97/33/1 98/34/1 99/35/1 100/36/1
f 101/37/1 102/38/1 103/39/1 104/40/1
f 105/41/1 106/42/1 107/43/1 108/44/1
f 109/1/1 110/2/1 111/3/1 112/4/1
f 113/5/1 114/6/1 115/7/1 116/8/1
f 117/9/1 118/10/1 119/11/1 120/12/1
f 121/13/1 122/14/1 123/15/1 124/16/1
f 125/49/1 126/50/1 127/51/1 128/52/1
f 129/53/1 130/54/1 131/55/1 132/56/1
f 133/57/1 134/58/1 135/59/1 136/60/1
f 137/61/1 138/62/1 139/63/1 140/64/1
f 141/17/1 142/18/1 143/19/1 144/20/1
f 145/21/1 146/22/1 147/23/1 148/24/1
f 149/65/1 150/66/1 151/67/1 152/68/1
f 153/69/1 154/70/1 155/71/1 156/72/1
f 157/73/1 158/74/1 159/75/1 160/76/1
f 161/77/1 162/78/1 163/79/1 164/80/1
f 165/81/1 166/82/1 167/83/1 168/84/1
f 169/85/1 170/86/1 171/87/1 172/88/1
f 173/89/1 174/90/1 175/91/1 176/92/1
f 177/93/1 178/94/1 179/95/1 180/96/1

