# Tiled2Unity generated file. Do not modify by hand.
# Wavefront file for 'SecondLevel_mesh_0004.obj'

# Vertices (Count = 96)
v -17 -5 0
v -18 -5 0
v -18 -4 0
v -17 -4 0
v -18 -8 0
v -19 -8 0
v -19 -7 0
v -18 -7 0
v -9 -10 0
v -10 -10 0
v -10 -9 0
v -9 -9 0
v -41 -10 0
v -42 -10 0
v -42 -9 0
v -41 -9 0
v -42 -10 0
v -43 -10 0
v -43 -9 0
v -42 -9 0
v -9 -11 0
v -10 -11 0
v -10 -10 0
v -9 -10 0
v -41 -11 0
v -42 -11 0
v -42 -10 0
v -41 -10 0
v -6 -13 0
v -7 -13 0
v -7 -12 0
v -6 -12 0
v -27 -20 0
v -28 -20 0
v -28 -19 0
v -27 -19 0
v -27 -21 0
v -28 -21 0
v -28 -20 0
v -27 -20 0
v -7 -25 0
v -8 -25 0
v -8 -24 0
v -7 -24 0
v -44 -25 0
v -45 -25 0
v -45 -24 0
v -44 -24 0
v -19 -26 0
v -20 -26 0
v -20 -25 0
v -19 -25 0
v -32 -27 0
v -33 -27 0
v -33 -26 0
v -32 -26 0
v -31 -30 0
v -32 -30 0
v -32 -29 0
v -31 -29 0
v -40 -37 0
v -41 -37 0
v -41 -36 0
v -40 -36 0
v -39 -38 0
v -40 -38 0
v -40 -37 0
v -39 -37 0
v -40 -38 0
v -41 -38 0
v -41 -37 0
v -40 -37 0
v -8 -40 0
v -9 -40 0
v -9 -39 0
v -8 -39 0
v -13 -42 0
v -14 -42 0
v -14 -41 0
v -13 -41 0
v -25 -42 0
v -26 -42 0
v -26 -41 0
v -25 -41 0
v -24 -43 0
v -25 -43 0
v -25 -42 0
v -24 -42 0
v -25 -43 0
v -26 -43 0
v -26 -42 0
v -25 -42 0
v -6 -46 0
v -7 -46 0
v -7 -45 0
v -6 -45 0

# Texture cooridinates (Count = 28)
vt 0.6876221 0.6876221
vt 0.7498779 0.6876221
vt 0.7498779 0.7498779
vt 0.6876221 0.7498779
vt 0.6876221 0.5626221
vt 0.7498779 0.5626221
vt 0.7498779 0.6248779
vt 0.6876221 0.6248779
vt 0.6251221 0.6876221
vt 0.6873779 0.6876221
vt 0.6873779 0.7498779
vt 0.6251221 0.7498779
vt 0.7501221 0.6876221
vt 0.8123779 0.6876221
vt 0.8123779 0.7498779
vt 0.7501221 0.7498779
vt 0.6876221 0.6251221
vt 0.7498779 0.6251221
vt 0.7498779 0.6873779
vt 0.6876221 0.6873779
vt 0.6251221 0.6251221
vt 0.6873779 0.6251221
vt 0.6873779 0.6873779
vt 0.6251221 0.6873779
vt 0.7501221 0.5626221
vt 0.8123779 0.5626221
vt 0.8123779 0.6248779
vt 0.7501221 0.6248779

# Normal
vn 0 0 -1

# Mesh description
g SecondLevel_mesh_0004

# Faces
f 1/1/1 2/2/1 3/3/1 4/4/1
f 5/5/1 6/6/1 7/7/1 8/8/1
f 9/9/1 10/10/1 11/11/1 12/12/1
f 13/9/1 14/10/1 15/11/1 16/12/1
f 17/13/1 18/14/1 19/15/1 20/16/1
f 21/17/1 22/18/1 23/19/1 24/20/1
f 25/13/1 26/14/1 27/15/1 28/16/1
f 29/13/1 30/14/1 31/15/1 32/16/1
f 33/13/1 34/14/1 35/15/1 36/16/1
f 37/21/1 38/22/1 39/23/1 40/24/1
f 41/13/1 42/14/1 43/15/1 44/16/1
f 45/5/1 46/6/1 47/7/1 48/8/1
f 49/5/1 50/6/1 51/7/1 52/8/1
f 53/5/1 54/6/1 55/7/1 56/8/1
f 57/13/1 58/14/1 59/15/1 60/16/1
f 61/9/1 62/10/1 63/11/1 64/12/1
f 65/1/1 66/2/1 67/3/1 68/4/1
f 69/25/1 70/26/1 71/27/1 72/28/1
f 73/13/1 74/14/1 75/15/1 76/16/1
f 77/1/1 78/2/1 79/3/1 80/4/1
f 81/9/1 82/10/1 83/11/1 84/12/1
f 85/1/1 86/2/1 87/3/1 88/4/1
f 89/25/1 90/26/1 91/27/1 92/28/1
f 93/13/1 94/14/1 95/15/1 96/16/1

