# Tiled2Unity generated file. Do not modify by hand.
# Wavefront file for 'FirstLevelRemaster_mesh_0006.obj'

# Vertices (Count = 40)
v -14 -30 0
v -15 -30 0
v -15 -29 0
v -14 -29 0
v -16 -30 0
v -17 -30 0
v -17 -29 0
v -16 -29 0
v -13 -31 0
v -14 -31 0
v -14 -30 0
v -13 -30 0
v -14 -31 0
v -15 -31 0
v -15 -30 0
v -14 -30 0
v -15 -31 0
v -16 -31 0
v -16 -30 0
v -15 -30 0
v -16 -31 0
v -17 -31 0
v -17 -30 0
v -16 -30 0
v -13 -32 0
v -14 -32 0
v -14 -31 0
v -13 -31 0
v -15 -32 0
v -16 -32 0
v -16 -31 0
v -15 -31 0
v -16 -32 0
v -17 -32 0
v -17 -31 0
v -16 -31 0
v -17 -33 0
v -18 -33 0
v -18 -32 0
v -17 -32 0

# Texture cooridinates (Count = 20)
vt 0.7501221 0.1251221
vt 0.8123779 0.1251221
vt 0.8123779 0.1873779
vt 0.7501221 0.1873779
vt 0.6876221 0.1876221
vt 0.7498779 0.1876221
vt 0.7498779 0.2498779
vt 0.6876221 0.2498779
vt 0.7501221 0.06262207
vt 0.8123779 0.06262207
vt 0.8123779 0.1248779
vt 0.7501221 0.1248779
vt 0.6876221 0.1251221
vt 0.7498779 0.1251221
vt 0.7498779 0.1873779
vt 0.6876221 0.1873779
vt 0.7501221 0.1876221
vt 0.8123779 0.1876221
vt 0.8123779 0.2498779
vt 0.7501221 0.2498779

# Normal
vn 0 0 -1

# Mesh description
g FirstLevelRemaster_mesh_0006

# Faces
f 1/1/1 2/2/1 3/3/1 4/4/1
f 5/5/1 6/6/1 7/7/1 8/8/1
f 9/1/1 10/2/1 11/3/1 12/4/1
f 13/9/1 14/10/1 15/11/1 16/12/1
f 17/5/1 18/6/1 19/7/1 20/8/1
f 21/13/1 22/14/1 23/15/1 24/16/1
f 25/9/1 26/10/1 27/11/1 28/12/1
f 29/13/1 30/14/1 31/15/1 32/16/1
f 33/17/1 34/18/1 35/19/1 36/20/1
f 37/17/1 38/18/1 39/19/1 40/20/1

