# Tiled2Unity generated file. Do not modify by hand.
# Wavefront file for 'FirstLevelRemaster_mesh_0003.obj'

# Vertices (Count = 756)
v -86 -23 0
v -87 -23 0
v -87 -22 0
v -86 -22 0
v -87 -23 0
v -88 -23 0
v -88 -22 0
v -87 -22 0
v -88 -23 0
v -89 -23 0
v -89 -22 0
v -88 -22 0
v -89 -23 0
v -90 -23 0
v -90 -22 0
v -89 -22 0
v -86 -24 0
v -87 -24 0
v -87 -23 0
v -86 -23 0
v -87 -24 0
v -88 -24 0
v -88 -23 0
v -87 -23 0
v -88 -24 0
v -89 -24 0
v -89 -23 0
v -88 -23 0
v -89 -24 0
v -90 -24 0
v -90 -23 0
v -89 -23 0
v -86 -25 0
v -87 -25 0
v -87 -24 0
v -86 -24 0
v -87 -25 0
v -88 -25 0
v -88 -24 0
v -87 -24 0
v -88 -25 0
v -89 -25 0
v -89 -24 0
v -88 -24 0
v -89 -25 0
v -90 -25 0
v -90 -24 0
v -89 -24 0
v -86 -26 0
v -87 -26 0
v -87 -25 0
v -86 -25 0
v -87 -26 0
v -88 -26 0
v -88 -25 0
v -87 -25 0
v -88 -26 0
v -89 -26 0
v -89 -25 0
v -88 -25 0
v -89 -26 0
v -90 -26 0
v -90 -25 0
v -89 -25 0
v -86 -27 0
v -87 -27 0
v -87 -26 0
v -86 -26 0
v -87 -27 0
v -88 -27 0
v -88 -26 0
v -87 -26 0
v -88 -27 0
v -89 -27 0
v -89 -26 0
v -88 -26 0
v -89 -27 0
v -90 -27 0
v -90 -26 0
v -89 -26 0
v -25 -28 0
v -26 -28 0
v -26 -27 0
v -25 -27 0
v -26 -28 0
v -27 -28 0
v -27 -27 0
v -26 -27 0
v -27 -28 0
v -28 -28 0
v -28 -27 0
v -27 -27 0
v -28 -28 0
v -29 -28 0
v -29 -27 0
v -28 -27 0
v -61 -28 0
v -62 -28 0
v -62 -27 0
v -61 -27 0
v -62 -28 0
v -63 -28 0
v -63 -27 0
v -62 -27 0
v -63 -28 0
v -64 -28 0
v -64 -27 0
v -63 -27 0
v -64 -28 0
v -65 -28 0
v -65 -27 0
v -64 -27 0
v -65 -28 0
v -66 -28 0
v -66 -27 0
v -65 -27 0
v -66 -28 0
v -67 -28 0
v -67 -27 0
v -66 -27 0
v -67 -28 0
v -68 -28 0
v -68 -27 0
v -67 -27 0
v -68 -28 0
v -69 -28 0
v -69 -27 0
v -68 -27 0
v -69 -28 0
v -70 -28 0
v -70 -27 0
v -69 -27 0
v -70 -28 0
v -71 -28 0
v -71 -27 0
v -70 -27 0
v -85 -28 0
v -86 -28 0
v -86 -27 0
v -85 -27 0
v -86 -28 0
v -87 -28 0
v -87 -27 0
v -86 -27 0
v -87 -28 0
v -88 -28 0
v -88 -27 0
v -87 -27 0
v -88 -28 0
v -89 -28 0
v -89 -27 0
v -88 -27 0
v -89 -28 0
v -90 -28 0
v -90 -27 0
v -89 -27 0
v -25 -29 0
v -26 -29 0
v -26 -28 0
v -25 -28 0
v -26 -29 0
v -27 -29 0
v -27 -28 0
v -26 -28 0
v -27 -29 0
v -28 -29 0
v -28 -28 0
v -27 -28 0
v -28 -29 0
v -29 -29 0
v -29 -28 0
v -28 -28 0
v -61 -29 0
v -62 -29 0
v -62 -28 0
v -61 -28 0
v -62 -29 0
v -63 -29 0
v -63 -28 0
v -62 -28 0
v -63 -29 0
v -64 -29 0
v -64 -28 0
v -63 -28 0
v -64 -29 0
v -65 -29 0
v -65 -28 0
v -64 -28 0
v -65 -29 0
v -66 -29 0
v -66 -28 0
v -65 -28 0
v -66 -29 0
v -67 -29 0
v -67 -28 0
v -66 -28 0
v -67 -29 0
v -68 -29 0
v -68 -28 0
v -67 -28 0
v -68 -29 0
v -69 -29 0
v -69 -28 0
v -68 -28 0
v -69 -29 0
v -70 -29 0
v -70 -28 0
v -69 -28 0
v -70 -29 0
v -71 -29 0
v -71 -28 0
v -70 -28 0
v -71 -29 0
v -72 -29 0
v -72 -28 0
v -71 -28 0
v -84 -29 0
v -85 -29 0
v -85 -28 0
v -84 -28 0
v -85 -29 0
v -86 -29 0
v -86 -28 0
v -85 -28 0
v -86 -29 0
v -87 -29 0
v -87 -28 0
v -86 -28 0
v -87 -29 0
v -88 -29 0
v -88 -28 0
v -87 -28 0
v -88 -29 0
v -89 -29 0
v -89 -28 0
v -88 -28 0
v -89 -29 0
v -90 -29 0
v -90 -28 0
v -89 -28 0
v -23 -30 0
v -24 -30 0
v -24 -29 0
v -23 -29 0
v -24 -30 0
v -25 -30 0
v -25 -29 0
v -24 -29 0
v -25 -30 0
v -26 -30 0
v -26 -29 0
v -25 -29 0
v -26 -30 0
v -27 -30 0
v -27 -29 0
v -26 -29 0
v -27 -30 0
v -28 -30 0
v -28 -29 0
v -27 -29 0
v -28 -30 0
v -29 -30 0
v -29 -29 0
v -28 -29 0
v -61 -30 0
v -62 -30 0
v -62 -29 0
v -61 -29 0
v -62 -30 0
v -63 -30 0
v -63 -29 0
v -62 -29 0
v -63 -30 0
v -64 -30 0
v -64 -29 0
v -63 -29 0
v -64 -30 0
v -65 -30 0
v -65 -29 0
v -64 -29 0
v -65 -30 0
v -66 -30 0
v -66 -29 0
v -65 -29 0
v -66 -30 0
v -67 -30 0
v -67 -29 0
v -66 -29 0
v -67 -30 0
v -68 -30 0
v -68 -29 0
v -67 -29 0
v -68 -30 0
v -69 -30 0
v -69 -29 0
v -68 -29 0
v -69 -30 0
v -70 -30 0
v -70 -29 0
v -69 -29 0
v -70 -30 0
v -71 -30 0
v -71 -29 0
v -70 -29 0
v -71 -30 0
v -72 -30 0
v -72 -29 0
v -71 -29 0
v -72 -30 0
v -73 -30 0
v -73 -29 0
v -72 -29 0
v -73 -30 0
v -74 -30 0
v -74 -29 0
v -73 -29 0
v -74 -30 0
v -75 -30 0
v -75 -29 0
v -74 -29 0
v -83 -30 0
v -84 -30 0
v -84 -29 0
v -83 -29 0
v -84 -30 0
v -85 -30 0
v -85 -29 0
v -84 -29 0
v -85 -30 0
v -86 -30 0
v -86 -29 0
v -85 -29 0
v -86 -30 0
v -87 -30 0
v -87 -29 0
v -86 -29 0
v -87 -30 0
v -88 -30 0
v -88 -29 0
v -87 -29 0
v -88 -30 0
v -89 -30 0
v -89 -29 0
v -88 -29 0
v -21 -31 0
v -22 -31 0
v -22 -30 0
v -21 -30 0
v -22 -31 0
v -23 -31 0
v -23 -30 0
v -22 -30 0
v -23 -31 0
v -24 -31 0
v -24 -30 0
v -23 -30 0
v -24 -31 0
v -25 -31 0
v -25 -30 0
v -24 -30 0
v -25 -31 0
v -26 -31 0
v -26 -30 0
v -25 -30 0
v -26 -31 0
v -27 -31 0
v -27 -30 0
v -26 -30 0
v -27 -31 0
v -28 -31 0
v -28 -30 0
v -27 -30 0
v -61 -31 0
v -62 -31 0
v -62 -30 0
v -61 -30 0
v -62 -31 0
v -63 -31 0
v -63 -30 0
v -62 -30 0
v -63 -31 0
v -64 -31 0
v -64 -30 0
v -63 -30 0
v -64 -31 0
v -65 -31 0
v -65 -30 0
v -64 -30 0
v -65 -31 0
v -66 -31 0
v -66 -30 0
v -65 -30 0
v -66 -31 0
v -67 -31 0
v -67 -30 0
v -66 -30 0
v -67 -31 0
v -68 -31 0
v -68 -30 0
v -67 -30 0
v -68 -31 0
v -69 -31 0
v -69 -30 0
v -68 -30 0
v -69 -31 0
v -70 -31 0
v -70 -30 0
v -69 -30 0
v -70 -31 0
v -71 -31 0
v -71 -30 0
v -70 -30 0
v -71 -31 0
v -72 -31 0
v -72 -30 0
v -71 -30 0
v -72 -31 0
v -73 -31 0
v -73 -30 0
v -72 -30 0
v -73 -31 0
v -74 -31 0
v -74 -30 0
v -73 -30 0
v -74 -31 0
v -75 -31 0
v -75 -30 0
v -74 -30 0
v -83 -31 0
v -84 -31 0
v -84 -30 0
v -83 -30 0
v -84 -31 0
v -85 -31 0
v -85 -30 0
v -84 -30 0
v -85 -31 0
v -86 -31 0
v -86 -30 0
v -85 -30 0
v -86 -31 0
v -87 -31 0
v -87 -30 0
v -86 -30 0
v -87 -31 0
v -88 -31 0
v -88 -30 0
v -87 -30 0
v -21 -32 0
v -22 -32 0
v -22 -31 0
v -21 -31 0
v -22 -32 0
v -23 -32 0
v -23 -31 0
v -22 -31 0
v -23 -32 0
v -24 -32 0
v -24 -31 0
v -23 -31 0
v -24 -32 0
v -25 -32 0
v -25 -31 0
v -24 -31 0
v -25 -32 0
v -26 -32 0
v -26 -31 0
v -25 -31 0
v -68 -32 0
v -69 -32 0
v -69 -31 0
v -68 -31 0
v -69 -32 0
v -70 -32 0
v -70 -31 0
v -69 -31 0
v -70 -32 0
v -71 -32 0
v -71 -31 0
v -70 -31 0
v -71 -32 0
v -72 -32 0
v -72 -31 0
v -71 -31 0
v -72 -32 0
v -73 -32 0
v -73 -31 0
v -72 -31 0
v -73 -32 0
v -74 -32 0
v -74 -31 0
v -73 -31 0
v -74 -32 0
v -75 -32 0
v -75 -31 0
v -74 -31 0
v -83 -32 0
v -84 -32 0
v -84 -31 0
v -83 -31 0
v -84 -32 0
v -85 -32 0
v -85 -31 0
v -84 -31 0
v -85 -32 0
v -86 -32 0
v -86 -31 0
v -85 -31 0
v -86 -32 0
v -87 -32 0
v -87 -31 0
v -86 -31 0
v -21 -33 0
v -22 -33 0
v -22 -32 0
v -21 -32 0
v -22 -33 0
v -23 -33 0
v -23 -32 0
v -22 -32 0
v -23 -33 0
v -24 -33 0
v -24 -32 0
v -23 -32 0
v -24 -33 0
v -25 -33 0
v -25 -32 0
v -24 -32 0
v -25 -33 0
v -26 -33 0
v -26 -32 0
v -25 -32 0
v -69 -33 0
v -70 -33 0
v -70 -32 0
v -69 -32 0
v -70 -33 0
v -71 -33 0
v -71 -32 0
v -70 -32 0
v -71 -33 0
v -72 -33 0
v -72 -32 0
v -71 -32 0
v -72 -33 0
v -73 -33 0
v -73 -32 0
v -72 -32 0
v -73 -33 0
v -74 -33 0
v -74 -32 0
v -73 -32 0
v -74 -33 0
v -75 -33 0
v -75 -32 0
v -74 -32 0
v -71 -34 0
v -72 -34 0
v -72 -33 0
v -71 -33 0
v -72 -34 0
v -73 -34 0
v -73 -33 0
v -72 -33 0
v -73 -34 0
v -74 -34 0
v -74 -33 0
v -73 -33 0
v -74 -34 0
v -75 -34 0
v -75 -33 0
v -74 -33 0
v -33 -36 0
v -34 -36 0
v -34 -35 0
v -33 -35 0
v -34 -36 0
v -35 -36 0
v -35 -35 0
v -34 -35 0
v -35 -36 0
v -36 -36 0
v -36 -35 0
v -35 -35 0
v -36 -36 0
v -37 -36 0
v -37 -35 0
v -36 -35 0
v -37 -36 0
v -38 -36 0
v -38 -35 0
v -37 -35 0
v -38 -36 0
v -39 -36 0
v -39 -35 0
v -38 -35 0
v -39 -36 0
v -40 -36 0
v -40 -35 0
v -39 -35 0
v -40 -36 0
v -41 -36 0
v -41 -35 0
v -40 -35 0
v -41 -36 0
v -42 -36 0
v -42 -35 0
v -41 -35 0
v -42 -36 0
v -43 -36 0
v -43 -35 0
v -42 -35 0
v -43 -36 0
v -44 -36 0
v -44 -35 0
v -43 -35 0
v -33 -37 0
v -34 -37 0
v -34 -36 0
v -33 -36 0
v -34 -37 0
v -35 -37 0
v -35 -36 0
v -34 -36 0
v -35 -37 0
v -36 -37 0
v -36 -36 0
v -35 -36 0
v -36 -37 0
v -37 -37 0
v -37 -36 0
v -36 -36 0
v -37 -37 0
v -38 -37 0
v -38 -36 0
v -37 -36 0
v -38 -37 0
v -39 -37 0
v -39 -36 0
v -38 -36 0
v -39 -37 0
v -40 -37 0
v -40 -36 0
v -39 -36 0
v -40 -37 0
v -41 -37 0
v -41 -36 0
v -40 -36 0
v -41 -37 0
v -42 -37 0
v -42 -36 0
v -41 -36 0
v -42 -37 0
v -43 -37 0
v -43 -36 0
v -42 -36 0
v -43 -37 0
v -44 -37 0
v -44 -36 0
v -43 -36 0
v -44 -37 0
v -45 -37 0
v -45 -36 0
v -44 -36 0
v -45 -37 0
v -46 -37 0
v -46 -36 0
v -45 -36 0
v -33 -38 0
v -34 -38 0
v -34 -37 0
v -33 -37 0
v -34 -38 0
v -35 -38 0
v -35 -37 0
v -34 -37 0
v -35 -38 0
v -36 -38 0
v -36 -37 0
v -35 -37 0
v -36 -38 0
v -37 -38 0
v -37 -37 0
v -36 -37 0
v -37 -38 0
v -38 -38 0
v -38 -37 0
v -37 -37 0
v -38 -38 0
v -39 -38 0
v -39 -37 0
v -38 -37 0
v -39 -38 0
v -40 -38 0
v -40 -37 0
v -39 -37 0
v -40 -38 0
v -41 -38 0
v -41 -37 0
v -40 -37 0
v -41 -38 0
v -42 -38 0
v -42 -37 0
v -41 -37 0
v -42 -38 0
v -43 -38 0
v -43 -37 0
v -42 -37 0
v -43 -38 0
v -44 -38 0
v -44 -37 0
v -43 -37 0
v -44 -38 0
v -45 -38 0
v -45 -37 0
v -44 -37 0
v -45 -38 0
v -46 -38 0
v -46 -37 0
v -45 -37 0
v -41 -39 0
v -42 -39 0
v -42 -38 0
v -41 -38 0
v -42 -39 0
v -43 -39 0
v -43 -38 0
v -42 -38 0
v -43 -39 0
v -44 -39 0
v -44 -38 0
v -43 -38 0
v -44 -39 0
v -45 -39 0
v -45 -38 0
v -44 -38 0
v -45 -39 0
v -46 -39 0
v -46 -38 0
v -45 -38 0
v -42 -40 0
v -43 -40 0
v -43 -39 0
v -42 -39 0
v -43 -40 0
v -44 -40 0
v -44 -39 0
v -43 -39 0
v -44 -40 0
v -45 -40 0
v -45 -39 0
v -44 -39 0
v -45 -40 0
v -46 -40 0
v -46 -39 0
v -45 -39 0

# Texture cooridinates (Count = 52)
vt 0.6876221 0.3126221
vt 0.7498779 0.3126221
vt 0.7498779 0.3748779
vt 0.6876221 0.3748779
vt 0.7501221 0.3126221
vt 0.8123779 0.3126221
vt 0.8123779 0.3748779
vt 0.7501221 0.3748779
vt 0.8126221 0.3126221
vt 0.8748779 0.3126221
vt 0.8748779 0.3748779
vt 0.8126221 0.3748779
vt 0.6876221 0.3751221
vt 0.7498779 0.3751221
vt 0.7498779 0.4373779
vt 0.6876221 0.4373779
vt 0.7501221 0.3751221
vt 0.8123779 0.3751221
vt 0.8123779 0.4373779
vt 0.7501221 0.4373779
vt 0.8126221 0.3751221
vt 0.8748779 0.3751221
vt 0.8748779 0.4373779
vt 0.8126221 0.4373779
vt 0.8751221 0.4376221
vt 0.9373779 0.4376221
vt 0.9373779 0.4998779
vt 0.8751221 0.4998779
vt 0.9376221 0.4376221
vt 0.9998779 0.4376221
vt 0.9998779 0.4998779
vt 0.9376221 0.4998779
vt 0.9376221 0.3751221
vt 0.9998779 0.3751221
vt 0.9998779 0.4373779
vt 0.9376221 0.4373779
vt 0.8126221 0.2501221
vt 0.8748779 0.2501221
vt 0.8748779 0.3123779
vt 0.8126221 0.3123779
vt 0.6876221 0.2501221
vt 0.7498779 0.2501221
vt 0.7498779 0.3123779
vt 0.6876221 0.3123779
vt 0.7501221 0.2501221
vt 0.8123779 0.2501221
vt 0.8123779 0.3123779
vt 0.7501221 0.3123779
vt 0.8751221 0.3751221
vt 0.9373779 0.3751221
vt 0.9373779 0.4373779
vt 0.8751221 0.4373779

# Normal
vn 0 0 -1

# Mesh description
g FirstLevelRemaster_mesh_0003

# Faces
f 1/1/1 2/2/1 3/3/1 4/4/1
f 5/5/1 6/6/1 7/7/1 8/8/1
f 9/5/1 10/6/1 11/7/1 12/8/1
f 13/9/1 14/10/1 15/11/1 16/12/1
f 17/1/1 18/2/1 19/3/1 20/4/1
f 21/5/1 22/6/1 23/7/1 24/8/1
f 25/5/1 26/6/1 27/7/1 28/8/1
f 29/9/1 30/10/1 31/11/1 32/12/1
f 33/1/1 34/2/1 35/3/1 36/4/1
f 37/5/1 38/6/1 39/7/1 40/8/1
f 41/5/1 42/6/1 43/7/1 44/8/1
f 45/9/1 46/10/1 47/11/1 48/12/1
f 49/1/1 50/2/1 51/3/1 52/4/1
f 53/5/1 54/6/1 55/7/1 56/8/1
f 57/5/1 58/6/1 59/7/1 60/8/1
f 61/9/1 62/10/1 63/11/1 64/12/1
f 65/1/1 66/2/1 67/3/1 68/4/1
f 69/5/1 70/6/1 71/7/1 72/8/1
f 73/5/1 74/6/1 75/7/1 76/8/1
f 77/9/1 78/10/1 79/11/1 80/12/1
f 81/13/1 82/14/1 83/15/1 84/16/1
f 85/17/1 86/18/1 87/19/1 88/20/1
f 89/17/1 90/18/1 91/19/1 92/20/1
f 93/21/1 94/22/1 95/23/1 96/24/1
f 97/13/1 98/14/1 99/15/1 100/16/1
f 101/17/1 102/18/1 103/19/1 104/20/1
f 105/17/1 106/18/1 107/19/1 108/20/1
f 109/17/1 110/18/1 111/19/1 112/20/1
f 113/17/1 114/18/1 115/19/1 116/20/1
f 117/17/1 118/18/1 119/19/1 120/20/1
f 121/17/1 122/18/1 123/19/1 124/20/1
f 125/17/1 126/18/1 127/19/1 128/20/1
f 129/17/1 130/18/1 131/19/1 132/20/1
f 133/21/1 134/22/1 135/23/1 136/24/1
f 137/13/1 138/14/1 139/15/1 140/16/1
f 141/25/1 142/26/1 143/27/1 144/28/1
f 145/5/1 146/6/1 147/7/1 148/8/1
f 149/5/1 150/6/1 151/7/1 152/8/1
f 153/9/1 154/10/1 155/11/1 156/12/1
f 157/25/1 158/26/1 159/27/1 160/28/1
f 161/5/1 162/6/1 163/7/1 164/8/1
f 165/5/1 166/6/1 167/7/1 168/8/1
f 169/9/1 170/10/1 171/11/1 172/12/1
f 173/1/1 174/2/1 175/3/1 176/4/1
f 177/5/1 178/6/1 179/7/1 180/8/1
f 181/5/1 182/6/1 183/7/1 184/8/1
f 185/5/1 186/6/1 187/7/1 188/8/1
f 189/5/1 190/6/1 191/7/1 192/8/1
f 193/5/1 194/6/1 195/7/1 196/8/1
f 197/5/1 198/6/1 199/7/1 200/8/1
f 201/5/1 202/6/1 203/7/1 204/8/1
f 205/5/1 206/6/1 207/7/1 208/8/1
f 209/29/1 210/30/1 211/31/1 212/32/1
f 213/21/1 214/22/1 215/23/1 216/24/1
f 217/13/1 218/14/1 219/15/1 220/16/1
f 221/25/1 222/26/1 223/27/1 224/28/1
f 225/5/1 226/6/1 227/7/1 228/8/1
f 229/5/1 230/6/1 231/7/1 232/8/1
f 233/33/1 234/34/1 235/35/1 236/36/1
f 237/37/1 238/38/1 239/39/1 240/40/1
f 241/13/1 242/14/1 243/15/1 244/16/1
f 245/25/1 246/26/1 247/27/1 248/28/1
f 249/5/1 250/6/1 251/7/1 252/8/1
f 253/5/1 254/6/1 255/7/1 256/8/1
f 257/33/1 258/34/1 259/35/1 260/36/1
f 261/37/1 262/38/1 263/39/1 264/40/1
f 265/1/1 266/2/1 267/3/1 268/4/1
f 269/5/1 270/6/1 271/7/1 272/8/1
f 273/5/1 274/6/1 275/7/1 276/8/1
f 277/5/1 278/6/1 279/7/1 280/8/1
f 281/5/1 282/6/1 283/7/1 284/8/1
f 285/5/1 286/6/1 287/7/1 288/8/1
f 289/5/1 290/6/1 291/7/1 292/8/1
f 293/5/1 294/6/1 295/7/1 296/8/1
f 297/5/1 298/6/1 299/7/1 300/8/1
f 301/5/1 302/6/1 303/7/1 304/8/1
f 305/29/1 306/30/1 307/31/1 308/32/1
f 309/17/1 310/18/1 311/19/1 312/20/1
f 313/17/1 314/18/1 315/19/1 316/20/1
f 317/21/1 318/22/1 319/23/1 320/24/1
f 321/13/1 322/14/1 323/15/1 324/16/1
f 325/25/1 326/26/1 327/27/1 328/28/1
f 329/5/1 330/6/1 331/7/1 332/8/1
f 333/5/1 334/6/1 335/7/1 336/8/1
f 337/33/1 338/34/1 339/35/1 340/36/1
f 341/37/1 342/38/1 343/39/1 344/40/1
f 345/13/1 346/14/1 347/15/1 348/16/1
f 349/17/1 350/18/1 351/19/1 352/20/1
f 353/25/1 354/26/1 355/27/1 356/28/1
f 357/5/1 358/6/1 359/7/1 360/8/1
f 361/5/1 362/6/1 363/7/1 364/8/1
f 365/33/1 366/34/1 367/35/1 368/36/1
f 369/37/1 370/38/1 371/39/1 372/40/1
f 373/41/1 374/42/1 375/43/1 376/44/1
f 377/45/1 378/46/1 379/47/1 380/48/1
f 381/45/1 382/46/1 383/47/1 384/48/1
f 385/45/1 386/46/1 387/47/1 388/48/1
f 389/45/1 390/46/1 391/47/1 392/48/1
f 393/45/1 394/46/1 395/47/1 396/48/1
f 397/45/1 398/46/1 399/47/1 400/48/1
f 401/49/1 402/50/1 403/51/1 404/52/1
f 405/5/1 406/6/1 407/7/1 408/8/1
f 409/5/1 410/6/1 411/7/1 412/8/1
f 413/5/1 414/6/1 415/7/1 416/8/1
f 417/5/1 418/6/1 419/7/1 420/8/1
f 421/5/1 422/6/1 423/7/1 424/8/1
f 425/9/1 426/10/1 427/11/1 428/12/1
f 429/1/1 430/2/1 431/3/1 432/4/1
f 433/5/1 434/6/1 435/7/1 436/8/1
f 437/5/1 438/6/1 439/7/1 440/8/1
f 441/33/1 442/34/1 443/35/1 444/36/1
f 445/37/1 446/38/1 447/39/1 448/40/1
f 449/1/1 450/2/1 451/3/1 452/4/1
f 453/5/1 454/6/1 455/7/1 456/8/1
f 457/5/1 458/6/1 459/7/1 460/8/1
f 461/5/1 462/6/1 463/7/1 464/8/1
f 465/33/1 466/34/1 467/35/1 468/36/1
f 469/41/1 470/42/1 471/43/1 472/44/1
f 473/49/1 474/50/1 475/51/1 476/52/1
f 477/5/1 478/6/1 479/7/1 480/8/1
f 481/5/1 482/6/1 483/7/1 484/8/1
f 485/5/1 486/6/1 487/7/1 488/8/1
f 489/5/1 490/6/1 491/7/1 492/8/1
f 493/9/1 494/10/1 495/11/1 496/12/1
f 497/41/1 498/42/1 499/43/1 500/44/1
f 501/45/1 502/46/1 503/47/1 504/48/1
f 505/45/1 506/46/1 507/47/1 508/48/1
f 509/37/1 510/38/1 511/39/1 512/40/1
f 513/41/1 514/42/1 515/43/1 516/44/1
f 517/45/1 518/46/1 519/47/1 520/48/1
f 521/45/1 522/46/1 523/47/1 524/48/1
f 525/45/1 526/46/1 527/47/1 528/48/1
f 529/37/1 530/38/1 531/39/1 532/40/1
f 533/41/1 534/42/1 535/43/1 536/44/1
f 537/45/1 538/46/1 539/47/1 540/48/1
f 541/49/1 542/50/1 543/51/1 544/52/1
f 545/5/1 546/6/1 547/7/1 548/8/1
f 549/5/1 550/6/1 551/7/1 552/8/1
f 553/9/1 554/10/1 555/11/1 556/12/1
f 557/41/1 558/42/1 559/43/1 560/44/1
f 561/45/1 562/46/1 563/47/1 564/48/1
f 565/45/1 566/46/1 567/47/1 568/48/1
f 569/37/1 570/38/1 571/39/1 572/40/1
f 573/13/1 574/14/1 575/15/1 576/16/1
f 577/17/1 578/18/1 579/19/1 580/20/1
f 581/17/1 582/18/1 583/19/1 584/20/1
f 585/17/1 586/18/1 587/19/1 588/20/1
f 589/17/1 590/18/1 591/19/1 592/20/1
f 593/17/1 594/18/1 595/19/1 596/20/1
f 597/17/1 598/18/1 599/19/1 600/20/1
f 601/17/1 602/18/1 603/19/1 604/20/1
f 605/17/1 606/18/1 607/19/1 608/20/1
f 609/17/1 610/18/1 611/19/1 612/20/1
f 613/21/1 614/22/1 615/23/1 616/24/1
f 617/1/1 618/2/1 619/3/1 620/4/1
f 621/5/1 622/6/1 623/7/1 624/8/1
f 625/5/1 626/6/1 627/7/1 628/8/1
f 629/5/1 630/6/1 631/7/1 632/8/1
f 633/5/1 634/6/1 635/7/1 636/8/1
f 637/5/1 638/6/1 639/7/1 640/8/1
f 641/5/1 642/6/1 643/7/1 644/8/1
f 645/5/1 646/6/1 647/7/1 648/8/1
f 649/5/1 650/6/1 651/7/1 652/8/1
f 653/5/1 654/6/1 655/7/1 656/8/1
f 657/29/1 658/30/1 659/31/1 660/32/1
f 661/17/1 662/18/1 663/19/1 664/20/1
f 665/21/1 666/22/1 667/23/1 668/24/1
f 669/41/1 670/42/1 671/43/1 672/44/1
f 673/45/1 674/46/1 675/47/1 676/48/1
f 677/45/1 678/46/1 679/47/1 680/48/1
f 681/45/1 682/46/1 683/47/1 684/48/1
f 685/45/1 686/46/1 687/47/1 688/48/1
f 689/45/1 690/46/1 691/47/1 692/48/1
f 693/45/1 694/46/1 695/47/1 696/48/1
f 697/45/1 698/46/1 699/47/1 700/48/1
f 701/49/1 702/50/1 703/51/1 704/52/1
f 705/5/1 706/6/1 707/7/1 708/8/1
f 709/5/1 710/6/1 711/7/1 712/8/1
f 713/5/1 714/6/1 715/7/1 716/8/1
f 717/9/1 718/10/1 719/11/1 720/12/1
f 721/41/1 722/42/1 723/43/1 724/44/1
f 725/49/1 726/50/1 727/51/1 728/52/1
f 729/5/1 730/6/1 731/7/1 732/8/1
f 733/5/1 734/6/1 735/7/1 736/8/1
f 737/9/1 738/10/1 739/11/1 740/12/1
f 741/41/1 742/42/1 743/43/1 744/44/1
f 745/45/1 746/46/1 747/47/1 748/48/1
f 749/45/1 750/46/1 751/47/1 752/48/1
f 753/37/1 754/38/1 755/39/1 756/40/1

